<?xml version="1.0" standalone="no"?>
<!DOCTYPE svg PUBLIC "-//W3C//DTD SVG 20010904//EN"
 "http://www.w3.org/TR/2001/REC-SVG-20010904/DTD/svg10.dtd">
<svg version="1.0" xmlns="http://www.w3.org/2000/svg"
 width="1024.000000pt" height="1024.000000pt" viewBox="0 0 1024.000000 1024.000000"
 preserveAspectRatio="xMidYMid meet">

<g transform="translate(0.000000,1024.000000) scale(0.100000,-0.100000)"
fill="#000000" stroke="none">
<path d="M6015 8784 c-403 -30 -737 -135 -1060 -332 -497 -302 -888 -833
-1030 -1397 -92 -362 -90 -784 4 -1141 143 -540 497 -1029 978 -1347 629 -417
1434 -493 2128 -202 l110 46 18 -22 c10 -12 81 -111 157 -220 136 -191 139
-197 129 -228 -23 -66 -7 -125 61 -225 124 -180 964 -1362 997 -1403 43 -53
123 -106 192 -128 84 -27 201 -18 285 24 81 39 147 104 189 185 30 57 32 67
32 166 0 97 -2 110 -30 165 -26 53 -964 1382 -1052 1493 -38 47 -80 73 -133
81 -31 6 -47 24 -190 224 l-156 218 99 97 c314 308 526 671 632 1086 51 201
69 341 68 561 0 387 -64 672 -229 1010 -176 363 -456 684 -793 909 -285 191
-606 313 -946 360 -113 15 -371 27 -460 20z m500 -403 c384 -79 714 -252 984
-515 374 -366 572 -839 571 -1371 -1 -562 -227 -1067 -650 -1448 -271 -245
-613 -404 -990 -463 -160 -25 -421 -22 -585 6 -454 78 -844 297 -1141 643
-224 261 -371 557 -446 897 -20 94 -23 131 -22 355 0 235 1 258 27 380 40 185
90 328 174 495 270 538 766 909 1361 1020 154 28 156 28 397 25 173 -3 241 -8
320 -24z"/>
<path d="M6120 8017 c-14 -7 -46 -48 -72 -92 -120 -206 -218 -355 -441 -670
-133 -187 -267 -382 -299 -434 -308 -504 -269 -1025 105 -1388 98 -95 178
-150 301 -209 156 -73 233 -89 436 -89 203 0 280 16 436 89 128 61 206 116
304 215 156 157 246 326 291 546 18 88 15 294 -5 390 -49 229 -122 370 -381
740 -193 275 -393 577 -494 747 -45 75 -88 141 -94 146 -22 17 -62 21 -87 9z
m-497 -1429 c8 -12 4 -39 -16 -105 -39 -128 -50 -198 -44 -288 7 -109 38 -200
97 -287 59 -87 65 -129 25 -176 -71 -85 -188 -23 -265 139 -86 183 -52 442 87
651 58 89 91 107 116 66z"/>
<path d="M2622 7309 c-256 -39 -484 -226 -567 -466 -33 -95 -49 -204 -41 -293
32 -390 332 -671 716 -672 196 -1 367 68 500 202 92 91 139 167 179 286 133
398 -95 824 -496 928 -78 20 -212 27 -291 15z m292 -25 c137 -36 280 -128 364
-235 110 -140 157 -277 156 -454 -1 -223 -87 -410 -252 -547 -360 -300 -921
-165 -1100 265 -165 395 31 829 433 961 117 38 276 42 399 10z"/>
<path d="M3035 6881 c-16 -10 -106 -95 -198 -189 -92 -94 -173 -174 -178 -178
-6 -3 -59 42 -119 100 -106 104 -110 106 -155 106 -38 0 -52 -5 -75 -29 -33
-33 -45 -69 -36 -108 5 -18 66 -87 164 -185 128 -128 164 -157 193 -163 51 -9
102 19 165 91 29 33 129 137 223 232 94 95 176 184 182 199 14 37 2 78 -33
113 -35 36 -87 40 -133 11z m123 -16 c36 -31 46 -65 30 -104 -20 -45 -478
-508 -511 -516 -15 -4 -40 -2 -55 4 -40 17 -330 305 -338 335 -15 63 31 126
92 126 50 0 88 -26 182 -125 44 -47 86 -85 94 -85 8 0 86 75 174 167 87 91
176 179 198 195 49 36 94 37 134 3z"/>
<path d="M2546 5460 c-250 -67 -446 -262 -513 -510 -23 -88 -23 -272 1 -360
94 -348 436 -577 788 -530 174 24 289 81 419 210 69 69 94 103 127 170 60 121
76 193 76 330 0 133 -17 206 -72 318 -92 185 -273 329 -474 377 -89 21 -265
19 -352 -5z m412 -22 c232 -83 395 -260 459 -498 23 -88 23 -262 0 -350 -84
-313 -358 -523 -682 -523 -433 0 -763 370 -706 794 27 205 131 374 302 490
133 90 243 120 424 116 109 -3 142 -8 203 -29z"/>
<path d="M3024 5052 c-21 -16 -114 -106 -205 -200 -91 -95 -170 -172 -175
-172 -4 0 -56 47 -114 105 -91 89 -112 105 -139 105 -74 0 -130 -65 -115 -133
9 -41 270 -308 328 -337 74 -35 84 -28 352 248 262 269 270 281 238 347 -32
68 -105 84 -170 37z m134 -7 c33 -28 46 -73 32 -111 -6 -14 -114 -133 -242
-263 -246 -251 -273 -272 -328 -248 -37 15 -319 293 -332 326 -13 36 0 77 34
106 58 49 97 33 223 -94 49 -50 94 -91 100 -91 6 0 56 46 111 102 54 56 145
146 201 200 89 86 106 98 137 98 22 0 45 -9 64 -25z"/>
<path d="M2557 3644 c-139 -33 -289 -128 -382 -242 -113 -136 -159 -268 -159
-452 0 -175 45 -311 149 -448 90 -119 248 -222 395 -256 93 -22 259 -21 352 3
199 51 372 192 462 375 52 107 69 183 70 316 0 140 -16 208 -81 340 -86 176
-254 310 -449 360 -92 24 -268 26 -357 4z m357 -14 c200 -51 361 -185 452
-375 51 -106 68 -184 68 -310 0 -127 -17 -203 -69 -314 -69 -144 -184 -259
-332 -327 -99 -47 -180 -64 -304 -64 -202 0 -355 64 -499 209 -128 129 -191
266 -206 450 -11 135 29 305 97 414 71 112 206 230 316 278 141 61 331 77 477
39z"/>
<path d="M3050 3235 c-21 -9 -111 -93 -218 -202 l-183 -186 -107 105 c-117
115 -148 131 -200 104 -69 -36 -90 -100 -52 -160 10 -18 83 -94 160 -169 147
-142 174 -158 236 -143 36 9 494 476 513 522 12 31 12 39 -2 69 -29 60 -89 85
-147 60z m86 -10 c41 -17 68 -70 58 -113 -7 -26 -427 -465 -484 -504 -30 -22
-72 -23 -108 -4 -15 8 -93 81 -174 163 -138 139 -148 152 -148 187 0 28 7 45
29 66 64 64 114 47 232 -79 45 -47 88 -90 96 -95 11 -6 64 41 206 182 168 167
217 209 250 211 4 1 23 -6 43 -14z"/>
</g>
</svg>
